<svg width="200" height="36" viewBox="0 0 200 36" fill="none" xmlns="http://www.w3.org/2000/svg">
<path d="M54.3873 13.0529H58.0131V9.57213C58.0131 5.36619 60.3336 2.61057 64.9747 2.61057L67.2952 3.04566V7.25161L64.8296 6.81651C63.3793 6.81651 62.7992 7.68671 62.7992 9.13703V13.0529H67.4402V17.2589H62.6541V34.8078H58.0131V17.1138H54.3873V13.0529Z" fill="#D60365"/>
<path d="M79.1878 12.6178C85.1341 12.6178 90.5003 17.2588 90.5003 23.9303C90.5003 30.6018 85.2792 35.2429 79.1878 35.2429C73.0964 35.2429 67.8752 30.6018 67.8752 23.9303C68.0203 17.1138 73.2415 12.6178 79.1878 12.6178ZM79.1878 31.0369C83.5388 31.0369 85.8593 27.8462 85.8593 23.9303C85.8593 20.0145 83.5388 16.8237 79.1878 16.8237C74.8368 16.8237 72.5163 20.0145 72.5163 23.9303C72.5163 27.7012 74.8368 31.0369 79.1878 31.0369Z" fill="#D60365"/>
<path d="M103.843 12.6178C109.79 12.6178 115.156 17.2588 115.156 23.9303C115.156 30.6018 109.935 35.2429 103.843 35.2429C97.752 35.2429 92.5308 30.6018 92.5308 23.9303C92.5308 17.1138 97.897 12.6178 103.843 12.6178ZM103.843 31.0369C108.194 31.0369 110.515 27.8462 110.515 23.9303C110.515 20.0145 108.194 16.8237 103.843 16.8237C99.4924 16.8237 97.1719 20.0145 97.1719 23.9303C97.1719 27.7012 99.4924 31.0369 103.843 31.0369Z" fill="#D60365"/>
<path d="M139.231 34.6628H135.025L134.59 32.7774L134.3 32.4873L134.01 32.7774C132.56 34.2277 130.384 35.0979 128.064 35.0979C122.117 35.0979 117.041 30.4569 117.041 23.7853C117.041 17.1138 122.117 12.4728 128.064 12.4728C130.384 12.4728 132.705 13.343 134.01 14.7933L134.3 15.0834L134.59 14.7933V2.75562H139.231V34.6628ZM128.354 16.6788C124.003 16.6788 121.682 19.8695 121.682 23.7853C121.682 27.7012 124.003 30.8919 128.354 30.8919C132.27 30.8919 135.025 27.7012 135.025 23.7853C135.025 19.8695 132.27 16.6788 128.354 16.6788Z" fill="#D60365"/>
<path d="M153.444 12.6178C159.391 12.6178 164.757 17.2588 164.757 23.9303C164.757 30.6018 159.536 35.2429 153.444 35.2429C147.498 35.2429 142.132 30.6018 142.132 23.9303C142.132 17.1138 147.498 12.6178 153.444 12.6178ZM153.444 31.0369C157.795 31.0369 160.116 27.8462 160.116 23.9303C160.116 20.0145 157.795 16.8237 153.444 16.8237C149.094 16.8237 146.773 20.0145 146.773 23.9303C146.773 27.7012 149.094 31.0369 153.444 31.0369Z" fill="#D60365"/>
<path d="M167.658 13.0529H171.864L172.299 15.3734L172.589 15.6635L172.879 15.3734C174.329 13.488 176.07 12.6178 177.955 12.6178C178.825 12.6178 179.405 12.6178 180.276 13.0529V17.2588H177.52C174.764 17.2588 172.589 19.4343 172.444 22.19V34.8078H167.803V13.0529H167.658Z" fill="#D60365"/>
<path d="M191.588 21.1747H195.359V20.1595C195.359 17.5489 193.619 16.3887 191.153 16.3887C189.123 16.3887 187.817 17.4039 187.092 19.2893L183.031 18.4191C183.901 14.7933 187.092 12.3278 191.298 12.3278C197.099 12.3278 200 15.2284 200 20.8847V34.3727H196.084L195.649 31.4721C194.199 33.6476 191.878 34.6628 188.833 34.6628C184.917 34.6628 182.161 32.3423 182.161 27.9913C182.161 23.9304 185.932 21.1747 191.588 21.1747ZM189.703 31.037C191.153 31.037 192.603 30.6019 193.619 29.5866C194.779 28.5714 195.359 27.2661 195.359 25.5257V25.0906H191.443C188.687 25.0906 186.947 26.3959 186.947 28.4264C186.947 29.8767 187.962 31.037 189.703 31.037Z" fill="#D60365"/>
<path d="M26.1059 34.0827C27.7013 33.5025 39.3039 28.8615 41.6244 27.9913C41.9145 27.8463 41.9145 27.5562 41.7695 27.4112C41.4794 27.1211 41.0443 26.831 40.1741 26.831C39.0138 26.831 29.0066 30.0217 29.0066 30.0217C29.0066 30.0217 24.3655 30.7469 23.7854 30.7469C23.2053 30.6019 23.0602 30.3118 23.0602 29.8767C23.0602 29.4416 23.3503 29.0065 24.2205 29.0065C25.0907 28.8615 30.1668 28.5714 31.037 28.1363C31.9072 27.5562 31.7622 26.686 31.3271 26.541C30.6019 26.2509 16.2437 26.2509 9.13711 26.3959C8.12188 26.3959 5.94639 26.3959 2.75568 26.3959C3.33581 29.8767 4.35104 32.9224 6.52653 35.678C8.55698 34.6628 10.8775 33.9376 13.4881 34.0827C15.3735 33.9376 24.2205 34.6628 26.1059 34.0827Z" fill="#D60365"/>
<path d="M43.5098 21.6099H41.6244C41.1893 11.4576 33.0674 3.19072 22.9152 2.75562V0.870196C22.9152 0.435098 22.6251 0 22.045 0C21.6099 0 21.1748 0.290066 21.1748 0.870196V2.75562C11.0225 3.19072 2.75562 11.3125 2.46555 21.6099H0.870196C0.435098 21.6099 0 21.8999 0 22.4801C0 22.9152 0.290065 23.3503 0.870196 23.3503H43.5098C43.9449 23.3503 44.38 23.0602 44.38 22.4801C44.38 21.8999 44.0899 21.6099 43.5098 21.6099ZM13.9231 6.81653C12.6178 8.41189 9.71719 12.7629 9.42712 18.8542C9.42712 19.4344 8.99202 19.8695 8.55693 19.8695H6.6715C6.09137 19.8695 5.65627 19.1443 5.80131 18.4191C6.38144 15.9536 8.26686 10.5874 13.7781 6.6715C13.9231 6.52647 14.0682 6.6715 13.9231 6.81653Z" fill="#D60365"/>
</svg>
